<svg xmlns="http://www.w3.org/2000/svg" width="900" height="1125" viewBox="0 0 900 1125">
  <defs>
    <radialGradient id="bg" cx="22%" cy="12%" r="92%">
      <stop offset="0" stop-color="#f59e0b" stop-opacity=".95"/>
      <stop offset=".46" stop-color="#ef4444" stop-opacity=".50"/>
      <stop offset="1" stop-color="#050712"/>
    </radialGradient>
    <linearGradient id="stroke" x1="0" x2="1" y1="0" y2="1">
      <stop stop-color="#f59e0b"/><stop offset=".52" stop-color="#ef4444"/><stop offset="1" stop-color="#8b5cf6"/>
    </linearGradient>
    <filter id="blur"><feGaussianBlur stdDeviation="42"/></filter>
    <filter id="glow" x="-30%" y="-30%" width="160%" height="160%"><feGaussianBlur stdDeviation="10" result="b"/><feMerge><feMergeNode in="b"/><feMergeNode in="SourceGraphic"/></feMerge></filter>
  </defs>
  <rect width="900" height="1125" fill="url(#bg)"/>
  <circle cx="160" cy="140" r="170" fill="#8b5cf6" opacity=".34" filter="url(#blur)"/>
  <circle cx="742" cy="332" r="210" fill="#f59e0b" opacity=".22" filter="url(#blur)"/>
  <circle cx="426" cy="606" r="230" fill="#ef4444" opacity=".18" filter="url(#blur)"/>
  <g opacity=".18" stroke="#fff" stroke-width="1">
    <path d="M90 0 V1125"/><path d="M162 0 V1125"/><path d="M234 0 V1125"/><path d="M306 0 V1125"/><path d="M378 0 V1125"/><path d="M450 0 V1125"/><path d="M522 0 V1125"/><path d="M594 0 V1125"/><path d="M666 0 V1125"/><path d="M738 0 V1125"/><path d="M810 0 V1125"/>
    <path d="M0 80 H900"/><path d="M0 154 H900"/><path d="M0 228 H900"/><path d="M0 302 H900"/><path d="M0 376 H900"/><path d="M0 450 H900"/><path d="M0 524 H900"/><path d="M0 598 H900"/><path d="M0 672 H900"/><path d="M0 746 H900"/><path d="M0 820 H900"/><path d="M0 894 H900"/><path d="M0 968 H900"/><path d="M0 1042 H900"/>
  </g>
  <rect x="46" y="46" width="808" height="1033" rx="66" fill="rgba(3,7,18,.30)" stroke="url(#stroke)" stroke-width="3"/>
  <g transform="translate(78 84)">
    <rect width="256" height="52" rx="26" fill="rgba(2,6,23,.58)" stroke="rgba(255,255,255,.18)"/>
    <text x="30" y="35" fill="#e2e8f0" font-family="Arial, 'PingFang SC', sans-serif" font-size="20" font-weight="800">产品设计灵感</text>
  </g>
  <g transform="translate(600 84)">
    <rect width="222" height="52" rx="26" fill="rgba(2,6,23,.58)" stroke="rgba(255,255,255,.18)"/>
    <text x="111" y="34" text-anchor="middle" fill="#cbd5e1" font-family="Arial, monospace" font-size="20" font-weight="800">LANDING</text>
  </g>
  
    <g transform="translate(164 332)" filter="url(#glow)">
      <rect x="0" y="0" width="572" height="358" rx="54" fill="rgba(255,255,255,.13)" stroke="rgba(255,255,255,.45)"/>
      <rect x="64" y="82" width="250" height="26" rx="13" fill="white" opacity=".82"/>
      <rect x="64" y="132" width="386" height="20" rx="10" fill="white" opacity=".46"/>
      <rect x="64" y="184" width="132" height="52" rx="26" fill="#f59e0b" opacity=".9"/>
      <circle cx="438" cy="182" r="86" fill="#8b5cf6" opacity=".55"/>
      <circle cx="488" cy="146" r="44" fill="#ef4444" opacity=".65"/>
    </g>
  <rect x="70" y="760" width="760" height="278" rx="44" fill="rgba(2,6,23,.62)" stroke="rgba(255,255,255,.14)"/>
  <text x="86" y="818" fill="#f8fafc" font-family="Arial, 'PingFang SC', sans-serif" font-size="38" font-weight="800">AI Prompt-to-Mockup Flow</text>
<text x="86" y="866" fill="#f8fafc" font-family="Arial, 'PingFang SC', sans-serif" font-size="38" font-weight="800">Generator</text>
  <text x="86" y="992" fill="#c4b5fd" font-family="Arial, 'PingFang SC', sans-serif" font-size="22" font-weight="700">AI Workflow</text>
</svg>