<svg xmlns="http://www.w3.org/2000/svg" width="900" height="1125" viewBox="0 0 900 1125">
  <defs>
    <radialGradient id="a" cx="28%" cy="16%" r="80%">
      <stop offset="0" stop-color="#7dd3fc" stop-opacity=".9"/>
      <stop offset=".45" stop-color="#8b5cf6" stop-opacity=".45"/>
      <stop offset="1" stop-color="#050712"/>
    </radialGradient>
    <linearGradient id="b" x1="0" x2="1" y1="0" y2="1">
      <stop stop-color="#22d3ee"/>
      <stop offset=".55" stop-color="#a78bfa"/>
      <stop offset="1" stop-color="#f472b6"/>
    </linearGradient>
    <filter id="glow" x="-30%" y="-30%" width="160%" height="160%">
      <feGaussianBlur stdDeviation="16" result="blur"/>
      <feMerge><feMergeNode in="blur"/><feMergeNode in="SourceGraphic"/></feMerge>
    </filter>
  </defs>
  <rect width="900" height="1125" fill="url(#a)"/>
  <g opacity=".22" stroke="#fff" stroke-width="1">
    <path d="M90 230 C210 160 300 320 430 250 S680 180 820 290"/>
    <path d="M80 710 C260 580 330 820 500 690 S720 590 835 760"/>
    <path d="M135 420 L760 925"/>
    <path d="M760 420 L135 925"/>
  </g>
  <circle cx="450" cy="520" r="210" fill="none" stroke="url(#b)" stroke-width="28" filter="url(#glow)" opacity=".9"/>
  <circle cx="450" cy="520" r="86" fill="#020617" stroke="#ffffff" stroke-opacity=".22" stroke-width="2"/>
  <path d="M410 520h80M450 480v80" stroke="#fff" stroke-width="20" stroke-linecap="round" opacity=".88"/>
  <rect x="86" y="832" width="728" height="178" rx="36" fill="#020617" fill-opacity=".62" stroke="#fff" stroke-opacity=".12"/>
  <text x="450" y="904" text-anchor="middle" fill="#f8fafc" font-family="Arial, PingFang SC, sans-serif" font-size="34" font-weight="700">本地封面</text>
  <text x="450" y="956" text-anchor="middle" fill="#cbd5e1" font-family="Arial, PingFang SC, sans-serif" font-size="24">Superdesign · Interactive Canvas Motion &amp; Micro-interactions</text>
</svg>